<mxfile host="app.diagrams.net" agent="Mozilla/5.0 (Windows NT 10.0; Win64; x64) AppleWebKit/537.36 (KHTML, like Gecko) Chrome/131.0.0.0 Safari/537.36" version="26.0.2">
  <diagram name="Seite-1" id="m3Pb9OBJGWHq6KpAfnF7">
    <mxGraphModel dx="1015" dy="757" grid="1" gridSize="10" guides="1" tooltips="1" connect="1" arrows="1" fold="1" page="1" pageScale="1" pageWidth="827" pageHeight="1169" math="0" shadow="0">
      <root>
        <mxCell id="0" />
        <mxCell id="1" parent="0" />
        <mxCell id="qzOSSKlgMk2OjheCI9l2-21" value="KI-Bewertung" style="shape=umlFrame;whiteSpace=wrap;html=1;pointerEvents=0;width=120;height=30;" parent="1" vertex="1">
          <mxGeometry width="700" height="280" as="geometry" />
        </mxCell>
        <mxCell id="qzOSSKlgMk2OjheCI9l2-3" value="Benutzer" style="shape=umlActor;verticalLabelPosition=bottom;verticalAlign=top;html=1;outlineConnect=0;" parent="1" vertex="1">
          <mxGeometry x="50" y="80" width="30" height="60" as="geometry" />
        </mxCell>
        <mxCell id="qzOSSKlgMk2OjheCI9l2-20" value=":CLI" style="html=1;whiteSpace=wrap;" parent="1" vertex="1">
          <mxGeometry x="240" y="85" width="110" height="50" as="geometry" />
        </mxCell>
        <mxCell id="qzOSSKlgMk2OjheCI9l2-22" value="" style="endArrow=none;html=1;rounded=0;entryX=0;entryY=0.5;entryDx=0;entryDy=0;" parent="1" source="qzOSSKlgMk2OjheCI9l2-3" target="qzOSSKlgMk2OjheCI9l2-20" edge="1">
          <mxGeometry width="50" height="50" relative="1" as="geometry">
            <mxPoint x="110" y="180" as="sourcePoint" />
            <mxPoint x="160" y="130" as="targetPoint" />
          </mxGeometry>
        </mxCell>
        <mxCell id="qzOSSKlgMk2OjheCI9l2-25" value="1.1: Kommando" style="text;html=1;align=center;verticalAlign=middle;whiteSpace=wrap;rounded=0;" parent="1" vertex="1">
          <mxGeometry x="90" y="55" width="130" height="30" as="geometry" />
        </mxCell>
        <mxCell id="qzOSSKlgMk2OjheCI9l2-26" value="" style="endArrow=classic;html=1;rounded=0;" parent="1" edge="1">
          <mxGeometry width="50" height="50" relative="1" as="geometry">
            <mxPoint x="130" y="90" as="sourcePoint" />
            <mxPoint x="180" y="90" as="targetPoint" />
          </mxGeometry>
        </mxCell>
        <mxCell id="qzOSSKlgMk2OjheCI9l2-28" value="" style="endArrow=open;html=1;rounded=0;" parent="1" edge="1">
          <mxGeometry width="50" height="50" relative="1" as="geometry">
            <mxPoint x="180" y="130" as="sourcePoint" />
            <mxPoint x="130" y="130" as="targetPoint" />
          </mxGeometry>
        </mxCell>
        <mxCell id="qzOSSKlgMk2OjheCI9l2-31" value="" style="endArrow=none;html=1;rounded=0;exitX=0.5;exitY=0;exitDx=0;exitDy=0;entryX=0.998;entryY=0.301;entryDx=0;entryDy=0;entryPerimeter=0;" parent="1" source="qzOSSKlgMk2OjheCI9l2-20" target="qzOSSKlgMk2OjheCI9l2-20" edge="1">
          <mxGeometry width="50" height="50" relative="1" as="geometry">
            <mxPoint x="310" y="90" as="sourcePoint" />
            <mxPoint x="360" y="40" as="targetPoint" />
            <Array as="points">
              <mxPoint x="295" y="60" />
              <mxPoint x="370" y="60" />
              <mxPoint x="370" y="100" />
            </Array>
          </mxGeometry>
        </mxCell>
        <mxCell id="qzOSSKlgMk2OjheCI9l2-36" value="" style="endArrow=classic;html=1;rounded=0;" parent="1" edge="1">
          <mxGeometry width="50" height="50" relative="1" as="geometry">
            <mxPoint x="310" y="40" as="sourcePoint" />
            <mxPoint x="360" y="40" as="targetPoint" />
          </mxGeometry>
        </mxCell>
        <mxCell id="qzOSSKlgMk2OjheCI9l2-37" value="1.2: Validierung" style="text;html=1;align=center;verticalAlign=middle;whiteSpace=wrap;rounded=0;" parent="1" vertex="1">
          <mxGeometry x="270" y="5" width="130" height="30" as="geometry" />
        </mxCell>
        <mxCell id="qzOSSKlgMk2OjheCI9l2-39" value=":Daemon" style="html=1;whiteSpace=wrap;" parent="1" vertex="1">
          <mxGeometry x="505" y="85" width="110" height="50" as="geometry" />
        </mxCell>
        <mxCell id="qzOSSKlgMk2OjheCI9l2-40" value="" style="endArrow=none;html=1;rounded=0;exitX=0.5;exitY=0;exitDx=0;exitDy=0;entryX=0.998;entryY=0.301;entryDx=0;entryDy=0;entryPerimeter=0;" parent="1" source="qzOSSKlgMk2OjheCI9l2-39" target="qzOSSKlgMk2OjheCI9l2-39" edge="1">
          <mxGeometry width="50" height="50" relative="1" as="geometry">
            <mxPoint x="575" y="90" as="sourcePoint" />
            <mxPoint x="625" y="40" as="targetPoint" />
            <Array as="points">
              <mxPoint x="560" y="60" />
              <mxPoint x="635" y="60" />
              <mxPoint x="635" y="100" />
            </Array>
          </mxGeometry>
        </mxCell>
        <mxCell id="qzOSSKlgMk2OjheCI9l2-41" value="1.4: Validierung" style="text;html=1;align=center;verticalAlign=middle;whiteSpace=wrap;rounded=0;" parent="1" vertex="1">
          <mxGeometry x="535" y="5" width="130" height="30" as="geometry" />
        </mxCell>
        <mxCell id="qzOSSKlgMk2OjheCI9l2-42" value="" style="endArrow=classic;html=1;rounded=0;" parent="1" edge="1">
          <mxGeometry width="50" height="50" relative="1" as="geometry">
            <mxPoint x="575" y="40" as="sourcePoint" />
            <mxPoint x="625" y="40" as="targetPoint" />
          </mxGeometry>
        </mxCell>
        <mxCell id="qzOSSKlgMk2OjheCI9l2-43" value="" style="endArrow=none;html=1;rounded=0;exitX=1;exitY=0.5;exitDx=0;exitDy=0;entryX=0;entryY=0.5;entryDx=0;entryDy=0;" parent="1" source="qzOSSKlgMk2OjheCI9l2-20" target="qzOSSKlgMk2OjheCI9l2-39" edge="1">
          <mxGeometry width="50" height="50" relative="1" as="geometry">
            <mxPoint x="380" y="160" as="sourcePoint" />
            <mxPoint x="430" y="110" as="targetPoint" />
          </mxGeometry>
        </mxCell>
        <mxCell id="qzOSSKlgMk2OjheCI9l2-44" value="" style="endArrow=classic;html=1;rounded=0;" parent="1" edge="1">
          <mxGeometry width="50" height="50" relative="1" as="geometry">
            <mxPoint x="414" y="90" as="sourcePoint" />
            <mxPoint x="464" y="90" as="targetPoint" />
          </mxGeometry>
        </mxCell>
        <mxCell id="qzOSSKlgMk2OjheCI9l2-45" value="" style="endArrow=open;html=1;rounded=0;" parent="1" edge="1">
          <mxGeometry width="50" height="50" relative="1" as="geometry">
            <mxPoint x="464" y="130" as="sourcePoint" />
            <mxPoint x="414" y="130" as="targetPoint" />
          </mxGeometry>
        </mxCell>
        <mxCell id="qzOSSKlgMk2OjheCI9l2-46" value="1.3: HTTP Aufruf" style="text;html=1;align=center;verticalAlign=middle;whiteSpace=wrap;rounded=0;" parent="1" vertex="1">
          <mxGeometry x="375" y="55" width="130" height="30" as="geometry" />
        </mxCell>
        <mxCell id="qzOSSKlgMk2OjheCI9l2-47" value=":OpenAI" style="html=1;whiteSpace=wrap;" parent="1" vertex="1">
          <mxGeometry x="505" y="210" width="110" height="50" as="geometry" />
        </mxCell>
        <mxCell id="qzOSSKlgMk2OjheCI9l2-50" value="" style="endArrow=classic;html=1;rounded=0;" parent="1" edge="1">
          <mxGeometry width="50" height="50" relative="1" as="geometry">
            <mxPoint x="580" y="150" as="sourcePoint" />
            <mxPoint x="580" y="200" as="targetPoint" />
          </mxGeometry>
        </mxCell>
        <mxCell id="qzOSSKlgMk2OjheCI9l2-51" value="" style="endArrow=none;html=1;rounded=0;entryX=0.5;entryY=1;entryDx=0;entryDy=0;exitX=0.5;exitY=0;exitDx=0;exitDy=0;" parent="1" source="qzOSSKlgMk2OjheCI9l2-47" target="qzOSSKlgMk2OjheCI9l2-39" edge="1">
          <mxGeometry width="50" height="50" relative="1" as="geometry">
            <mxPoint x="510" y="220" as="sourcePoint" />
            <mxPoint x="560" y="170" as="targetPoint" />
          </mxGeometry>
        </mxCell>
        <mxCell id="qzOSSKlgMk2OjheCI9l2-52" value="" style="endArrow=open;html=1;rounded=0;" parent="1" edge="1">
          <mxGeometry width="50" height="50" relative="1" as="geometry">
            <mxPoint x="541" y="200" as="sourcePoint" />
            <mxPoint x="541" y="150" as="targetPoint" />
          </mxGeometry>
        </mxCell>
        <mxCell id="qzOSSKlgMk2OjheCI9l2-53" value="1.7: Antwort" style="text;html=1;align=center;verticalAlign=middle;whiteSpace=wrap;rounded=0;" parent="1" vertex="1">
          <mxGeometry x="375" y="135" width="130" height="30" as="geometry" />
        </mxCell>
        <mxCell id="qzOSSKlgMk2OjheCI9l2-54" value="1.8: RÃ¼ckmeldung" style="text;html=1;align=center;verticalAlign=middle;whiteSpace=wrap;rounded=0;" parent="1" vertex="1">
          <mxGeometry x="90" y="135" width="130" height="30" as="geometry" />
        </mxCell>
        <mxCell id="qzOSSKlgMk2OjheCI9l2-55" value="1.5: HTTP Aufruf" style="text;html=1;align=center;verticalAlign=middle;whiteSpace=wrap;rounded=0;" parent="1" vertex="1">
          <mxGeometry x="570" y="160" width="130" height="30" as="geometry" />
        </mxCell>
        <mxCell id="qzOSSKlgMk2OjheCI9l2-62" value="1.6: Antwort" style="text;html=1;align=center;verticalAlign=middle;whiteSpace=wrap;rounded=0;" parent="1" vertex="1">
          <mxGeometry x="414" y="160" width="130" height="30" as="geometry" />
        </mxCell>
      </root>
    </mxGraphModel>
  </diagram>
</mxfile>
